<svg id="SvgjsSvg1001" width="288" height="288" xmlns="http://www.w3.org/2000/svg" version="1.1" xmlns:xlink="http://www.w3.org/1999/xlink" xmlns:svgjs="http://svgjs.com/svgjs"><defs id="SvgjsDefs1002"></defs><g id="SvgjsG1008" transform="matrix(1,0,0,1,0,0)"><svg xmlns="http://www.w3.org/2000/svg" width="288" height="288" enable-background="new 0 0 96.769 96.768" viewBox="0 0 96.769 96.768"><path d="M78.13 62.958c-.434-4.479-1.723-9.157-3.728-13.527-1.819-3.98-4.206-7.787-7.089-11.306-.81-.994-1.633-1.946-2.058-2.385l-.979-1.07c-.239-.274-.44-.494-.639-.689l-.293-.297c-.32-.322-.65-.656-.924-.99-.021-.027-.044-.053-.068-.079-.133-.146-.276-.292-.436-.455-.208-.211-.444-.446-.654-.71-.027-.033-.055-.065-.083-.098-1.492-1.64-2.747-3.131-3.835-4.555-1.274-1.677-2.174-3.064-2.922-4.51-.866-1.647-1.514-3.48-1.924-5.462-.389-1.795-.616-3.855-.677-6.13-.06-2.02.063-3.961.19-5.58.092-1.078.196-2.032.298-2.875.079-.657-.172-1.311-.671-1.746-.5-.436-1.182-.597-1.821-.428-.954.249-1.932.579-2.9.979-2.033.829-4.033 1.982-5.947 3.431-2.441 1.853-4.58 4.142-6.356 6.799-2.18 3.247-3.723 7.066-4.46 11.031-.841 4.363-.748 9.286.26 13.854.957 4.422 2.81 8.938 5.366 13.073 1.351 2.153 2.646 3.953 3.928 5.464.382.475 1.434 1.703 1.445 1.717l.42.481c.294.333.504.584.718.84.198.235.361.43.543.624l.031.032c2 2.392 3.41 4.148 4.574 5.702 1.286 1.71 2.417 3.368 3.456 5.066 1.107 1.814 1.898 3.4 2.488 4.985.666 1.803 1.104 3.757 1.307 5.816.187 1.812.188 3.844.005 6.2-.184 2.137-.517 4.085-.779 5.512-.196.976-.388 1.877-.563 2.655-.148.659.045 1.349.516 1.833.381.393.899.606 1.436.606.127 0 .255-.012.382-.036.939-.184 1.843-.424 2.738-.728 2.09-.68 4.152-1.669 6.122-2.932 2.556-1.616 4.862-3.688 6.855-6.153 2.416-2.988 4.303-6.575 5.456-10.37C78.151 72.325 78.592 67.623 78.13 62.958zM38.92 75.206c-.833-1.822-1.923-3.562-3.234-5.161-.33-.405-.729-.87-.924-1.072l-.461-.504c-.12-.135-.207-.229-.299-.322l-.126-.127c-.146-.146-.292-.295-.416-.443-.022-.026-.045-.053-.069-.078l-.173-.18c-.101-.104-.2-.205-.285-.311-.022-.027-.045-.054-.069-.08-.659-.723-1.226-1.396-1.725-2.047-.422-.559-.911-1.24-1.343-2.072-.395-.752-.689-1.586-.878-2.495-.176-.817-.279-1.757-.307-2.794-.025-.861.023-1.675.062-2.212.051-.709-.279-1.393-.867-1.794-.588-.401-1.344-.459-1.987-.154-.74.353-1.467.797-2.163 1.323-1.114.847-2.09 1.891-2.898 3.101-.694 1.033-1.611 2.747-2.036 5.03-.385 1.996-.344 4.246.116 6.328.437 2.021 1.283 4.084 2.454 5.979.617.981 1.207 1.802 1.775 2.472.167.207.529.626.69.813l-.003.003.178.202c.141.159.24.277.337.395.084.103.156.188.223.258l.031.033c.617.737 1.412 1.7 2.091 2.607.59.783 1.105 1.539 1.576 2.312.503.822.864 1.545 1.133 2.269.304.824.505 1.719.598 2.665.085.825.085 1.753.003 2.815-.054.631-.143 1.297-.269 2.036-.123.715.152 1.441.717 1.896.361.289.805.44 1.254.44.253 0 .509-.048.751-.146.696-.283 1.385-.643 2.035-1.06 1.167-.735 2.222-1.683 3.137-2.813 1.102-1.362 1.963-3 2.49-4.732.583-1.903.789-4.108.583-6.206C40.422 79.335 39.834 77.2 38.92 75.206z" fill="#ffffff" class="color000 svgShape"></path></svg></g></svg>